<?xml version="1.0" encoding="UTF-8"?>
<!DOCTYPE svg PUBLIC "-//W3C//DTD SVG 1.1//EN" "http://www.w3.org/Graphics/SVG/1.1/DTD/svg11.dtd">
<!-- Creator: CorelDRAW 2020 (64-Bit) -->
<svg xmlns="http://www.w3.org/2000/svg" xml:space="preserve" width="300px" height="242px" version="1.1" style="shape-rendering:geometricPrecision; text-rendering:geometricPrecision; image-rendering:optimizeQuality; fill-rule:evenodd; clip-rule:evenodd"
viewBox="0 0 226.16 182.36"
 xmlns:xlink="http://www.w3.org/1999/xlink"
 xmlns:xodm="http://www.corel.com/coreldraw/odm/2003">
 <defs>
  <style type="text/css">
   <![CDATA[
    .fil0 {fill:white;fill-opacity:0.231373}
    .fil1 {fill:white;fill-rule:nonzero;fill-opacity:0.231373}
   ]]>
  </style>
 </defs>
 <g id="Livello_x0020_1">
  <metadata id="CorelCorpID_0Corel-Layer"/>
  <g id="_1824772480592">
   <g>
    <g>
     <path class="fil0" d="M108.28 136.01l4.18 3.92c0.72,-0.39 1.6,-0.65 2.41,-0.65 1.27,0 2.39,0.4 3.35,1.21 1.53,1.29 2.29,3.1 2.29,5.4l0 36.38 5.26 0 0 -36.38c0,-0.56 0.16,-1.43 0.47,-2.6 0.32,-1.18 1.02,-2.14 2.1,-2.89 1.08,-0.74 2.19,-1.12 3.35,-1.12 2.08,0 3.74,0.93 4.97,2.79 0.86,1.3 1.28,2.59 1.28,3.88l0 36.32 5.26 0 0 -36.33c0,-3.43 -1.04,-6.27 -3.1,-8.53 -2.07,-2.26 -4.67,-3.39 -7.8,-3.39 -3.42,0 -6.18,1.13 -8.27,3.39l-0.61 0.66c-2.5,-2.7 -5.46,-4.05 -8.88,-4.05 -2.22,0 -4.57,0.85 -6.26,1.99 -0.1,0.06 0.09,-0.06 0,0z"/>
     <path class="fil1" d="M86.34 182.36l0 -32.98c0,-4.8 1.34,-8.57 4.01,-11.3 2.56,-2.64 6,-3.96 10.32,-3.96 4.33,0 7.8,1.34 10.41,4.03 2.62,2.69 3.93,6.43 3.93,11.23l0 32.98 -5.49 0 0 -18.44 -17.64 0 0 18.44 -5.54 0zm5.54 -23.66l17.64 0 0 -9.25c0,-4.63 -1.59,-7.62 -4.78,-8.99 -1.53,-0.66 -3,-0.99 -4.42,-0.99 -2.56,0 -4.6,0.94 -6.13,2.81 -1.54,1.87 -2.31,4.26 -2.31,7.17l0 9.25z"/>
    </g>
   </g>
   <path class="fil0" d="M41.27 163.52l2.12 -1.68 3.58 4.5 -2.12 1.68 -3.58 -4.5zm47.96 -71.97l3.18 -2.52 3.58 4.5 -3.18 2.53 -3.58 -4.51zm12.82 24.83l2.38 -1.89 1.9 2.38 -2.39 1.9 -1.89 -2.39zm-38.79 -14.14c9.43,-10.87 45.55,-32.66 47.43,-30.35 -4.38,3.5 -11.74,9.24 -14.97,11.54 -2.26,1.61 0.28,0.21 -0.43,0.26 -1.89,0.13 -3.37,2.03 -3.67,2.72 -0.51,1.18 -5.57,3.09 -5.09,3.78 0.03,0.04 -0.17,0.43 -0.6,0.48 -1.19,0.13 -3.07,0.76 -3.56,3.05 -0.28,1.29 -1.67,1.66 -1.49,1.81 0.5,0.42 -0.92,0.6 -1.07,0.49 -1.66,-1.28 -2.54,1.15 -6.83,-0.04 -2.3,-0.65 -8.51,5.07 -9.72,6.26zm-42.15 35.37l1.32 -1.06 18.74 23.58 -1.32 1.06 -18.74 -23.58zm72.68 -32.71l1.47 -1.17 5.37 6.75 -1.47 1.17 -5.37 -6.75zm-2.58 -70.69l0.92 -0.74 33.07 41.6 -0.93 0.74 -33.06 -41.6zm16.76 82.18l-2.47 -3.34 3.54 -3.24 2.7 3.48 -3.77 3.1zm-63.04 44.4l1.4 -1.4 52.28 -41.2 1.65 -1.16 2.53 3.18 -1.46 1.39 -50.98 40.17 -2.91 2.2 -2.51 -3.18zm64.34 -53.45c0.17,-0.05 0.3,-0.27 0.49,-0.17l2.44 -1.35 4.45 5.3 -2.9 2.37c-0.78,-0.87 -1.26,-1.51 -1.9,-2.31l-2.74 -2.58c0.22,-0.29 0.39,-0.75 0.16,-1.26zm-6.25 2.22c-2.25,-2.08 -4.41,-5.1 -6.34,-7.56 -3.12,-3.94 -1.32,-6.78 1.58,-5.23 1.09,0.58 5.26,6.16 6.32,7.52 2.99,3.84 1.6,4.63 -1.56,5.27zm0.64 -17.86c1.22,-3.26 12.94,-11.35 16.77,-14.39 1.9,0.43 3.28,2.63 5.92,1.03 2.8,-1.68 1.99,-3.76 0.38,-6.02l72.08 -56.86c4.38,-3.49 6.82,-6.02 11.29,-4.97 4.19,0.99 6.31,6.08 5.65,8.99 -0.86,3.78 -5.63,6.68 -9.08,9.42l-83.56 65.97c-2.44,1.94 -8.46,8.22 -10.91,7.56 -1.95,-0.53 -8.28,-9.33 -8.54,-10.73zm-26.88 21.23l-8.67 -11.01 3.58 -3.32 5.98 7.27 3.76 5.38 -3.49 3.13 -1.16 -1.45zm-57.96 25.88c4.46,4.38 10.4,12.94 14.6,18.16 2.32,2.88 5.24,5.46 1.3,7.6 -8.17,4.43 -20.43,-2.76 -22.56,-11.06 -0.72,-2.77 -0.63,-5.9 0.09,-8.23 1.42,-4.57 2.56,-4.23 6.57,-6.47zm74.54 -50.94l2.84 -2.4 4.32 5.4 -2.9 2.42 -4.26 -5.42zm-7.99 13.29l-2.42 -3.29 -0.69 -1.21c0.16,-0.02 1.84,-1.09 1.79,-1.52 -0.05,-0.51 0.83,-0.83 3.26,-2.75l4.39 5.15c-0.49,0.89 -1.73,2.93 -2.53,3.44 -1.49,0.94 -1.11,-0.59 -3.8,0.18zm36.57 -34.43c15.93,-12.91 47.2,-36.99 63.7,-50.1 7.51,-5.97 22.52,-21.96 33.91,-8.28 3.18,3.83 3.75,8.29 3.36,11.56 -1.03,8.49 -10.33,13.67 -18.15,19.89l-87.9 69.41 -2.68 -3.39 99.56 -78.68c12.36,-9.83 -0.49,-26.91 -13.3,-16.73l-75.4 59.38 -3.1 -3.06zm-23.91 18.95l16.02 -12.85c1.49,0.4 3.03,0.88 4.69,2.07l-17.85 14.19 -2.86 -3.41zm-17.18 22.83l-6.61 -8.37c3.06,-1.22 5.62,-3.43 8.47,-0.37 2.96,3.17 1.08,6.22 -1.86,8.74zm6.85 -4.94c3.24,0.77 2.46,0.8 5.2,4.29 6.32,8.06 7.1,5.38 -6.1,15.87 -4.87,3.87 -41.08,33.54 -44.54,33.39l-18.06 -22.46c1.92,-3.06 37.16,-31.06 40.47,-33.24 0.61,2.36 10.85,16.03 13.16,16.06 2.06,0.03 6.72,-4.05 6.91,-6 0.34,-3.31 -1.12,-0.23 1,-3.77 1.1,-1.83 1.04,-2.67 1.96,-4.14zm-45.5 64.39c-10.99,12.51 -42.05,3.01 -39,-21.76 0.83,-6.72 2.52,-10.39 9.33,-16.01 19.58,-16.19 79.57,-69.42 82.03,-89.06l23.15 28.89c-2.28,0.42 -2.07,-0.15 -4.19,-0.05 -8.08,0.39 -20.99,7.4 -27.58,11.98l-24.85 18.32c-1.08,0.85 -36,28.5 -37.05,29.12l-9.45 6.69c-0.71,2.16 -10.72,10.3 -3.77,22.02 3.19,5.37 8.94,9.09 13.65,10.23 6.4,1.54 7.99,0.47 15.33,-3.41l2.4 3.04zm4.46 2.49c6.07,-4.82 2.88,-3.07 4.51,-5.33l49.84 -39.55c4.69,-3.71 2.36,0.53 8.32,-4.61 2.3,-1.99 1.43,-2.15 2.47,-3.93 3.11,-0.9 1.49,0.86 5.31,-2.19 3.92,-3.14 1.92,-3.55 3.77,-5.02l97.83 -77.31c15.02,-11.92 5.05,-32.19 -9.77,-32.5 -5.13,-0.11 -8.75,1.23 -13.91,5.35 -9.77,7.78 -35.03,27.15 -44.66,35.07 -9.19,7.55 -20.4,17.05 -30.03,23.8l-25.12 -31.56c-3.98,-5 -8.25,-1.82 -7.41,1.74 1.22,5.18 4.91,2.39 2.93,10.54 -4.26,17.49 -65.35,70.4 -78.81,81.8 -8.22,6.97 -10.56,10.25 -11.64,18.72 -0.84,6.62 -0.18,13.63 6.04,21 5.88,6.96 11.57,8.76 19.21,9.81 6.15,0.84 10.56,-0.95 15.78,-3.74 3.34,-1.79 2.19,0.41 5.34,-2.09zm52.94 -76.34l1.48 -1.17 8.32 10.47 -1.48 1.17 -8.32 -10.47z"/>
   <path class="fil0" d="M184.53 78.95c-6.05,0.34 -10.59,1.51 -15.39,3.88 -4.74,2.34 -8.14,5.15 -11.07,8.26 -0.89,0.96 -1.36,1.42 -2.24,2.57 -10.63,13.9 -10.9,32.75 -0.53,46.63 0.73,0.97 1.46,1.76 2.17,2.64l1.8 1.89c0.24,0.22 0.41,0.34 0.65,0.57 1.26,1.2 2.44,2.24 3.92,3.24 0.53,0.37 0.89,0.67 1.44,1.01 2.03,1.23 3.91,2.28 6.32,3.29 4.68,1.96 10.75,3.04 16.08,2.81 10.09,-0.45 20.18,-5 26.45,-12.07 0.21,-0.24 0.29,-0.31 0.55,-0.56l1.69 -2.01c0.65,-0.77 1.4,-1.87 2.01,-2.8 2.74,-4.22 4.51,-8.6 5.52,-13.69 0.22,-1.1 0.68,-4.24 0.64,-5.46 0,-0.17 -0.02,-0.43 -0.02,-0.45 0.59,-5.95 -1.5,-13.42 -3.8,-18.25 -1.06,-2.22 -2.35,-4.23 -3.65,-5.97 -0.73,-0.98 -1.39,-1.8 -2.14,-2.68 -1.82,-2.14 -5.45,-5.22 -7.8,-6.72 -6.55,-4.19 -14.4,-6.6 -22.6,-6.13zm25.47 20.89c-0.54,0.11 -3.11,0.5 -3.45,0.46 -0.22,0.19 -0.37,0.16 -0.7,0.17l0.02 0.36 0.56 2.46c-0.97,0.04 -2.33,0.13 -3.3,0l-0.69 -2.43 -7.19 0.51c-2.46,0.14 -5.01,0.08 -7.43,0.24l-0.02 1.73 -3.3 0 -0.01 -1.74c-2.5,-0.09 -4.97,-0.1 -7.45,-0.22 -1.17,-0.06 -2.41,-0.13 -3.58,-0.23 -1.03,-0.09 -2.6,-0.31 -3.58,-0.27l-0.68 2.45 -3.35 0.01c0.12,-1.01 0.56,-1.97 0.7,-2.93 -2.58,-0.03 -7.78,-1.35 -10.14,-1.79 -1.43,2.28 -2.65,4.8 -3.62,7.65 -0.41,1.22 -2.21,8.38 -1.63,9.41 0.31,0.1 3.8,-0.01 4.63,-0.01l0.01 3.3 -4.73 0c0,0.25 0,1.17 0,1.23l0.55 3.63c0.92,5.04 2.42,7.95 4.78,12.2 2.33,-0.41 4.86,-1.2 7.38,-1.46 0.91,-0.1 1.78,-0.3 2.73,-0.39 -0.15,-0.99 -0.53,-1.88 -0.66,-2.87l3.32 0c0.2,0.4 0.46,2.01 0.71,2.46l7.16 -0.5c2.46,-0.12 4.96,-0.22 7.44,-0.21l0.02 -1.76 3.29 0.01 0.02 1.73c3.63,0.24 7.14,0.13 11.1,0.46 0.89,0.07 2.77,0.33 3.57,0.26l0.61 -2.45 3.36 0 -0.64 2.78c0.15,0.09 -0.07,0.02 0.27,0.12l4.88 0.75c1.64,0.31 3.41,0.81 4.94,1.06 0.62,-1.17 1.34,-2.22 1.95,-3.55 1.85,-3.97 3.36,-8.98 3.38,-13.5l-4.72 0 -0.01 -3.28 3.6 -0.02c1.39,0.01 1.58,0.66 0.57,-4.94 -0.54,-3 -1.55,-5.77 -2.79,-8.48 -0.38,-0.83 -1.54,-3.18 -2.07,-3.62 -1.92,0.41 -3.77,0.89 -5.81,1.21zm-46.18 6.28c-2.65,0.56 -4.42,2.21 -5.11,4.63 -0.47,1.64 -0.23,7.41 -0.23,9.54 0,1.76 -0.11,2.81 0.49,4.36 1.86,4.74 7.04,3.97 10.81,3.97 11.19,0 22.62,0 33.85,0 1.32,0 3.67,0.13 4.87,-0.09 2.54,-0.48 4.44,-2.29 5.09,-4.63 0.48,-1.71 0.23,-7.3 0.23,-9.44 0,-1.65 0.12,-2.84 -0.44,-4.33 -0.39,-1.03 -1.25,-2.18 -2.1,-2.8 -2.44,-1.77 -5.14,-1.3 -8.57,-1.3l-29.15 0c-1.6,0 -8.75,-0.11 -9.74,0.09zm32.14 19.2l10.95 0c4.52,0 3.61,-4.12 3.61,-8 0,-3.82 0.9,-7.99 -3.61,-7.99l-40.51 0c-1.48,0 -2.47,-0.13 -3.47,0.73 -0.9,0.77 -1.13,1.49 -1.14,3.07l0 8.39c0,1.54 0.31,2.38 1.19,3.12 0.89,0.76 2.1,0.68 3.53,0.68l12.58 -0.01c5.62,-0.01 11.26,0.01 16.87,0.01zm-30.39 -2.34l3.33 0c0.24,-1.07 1.57,-6.16 1.94,-6.84l1.9 6.83 3.28 0 2.42 -10.75 2.48 10.75 3.18 0.01c0.35,-0.26 0.93,-2.87 1.09,-3.44 0.23,-0.83 0.69,-2.85 0.99,-3.41 0.22,0.71 0.27,1.38 0.61,1.57 0.02,0.13 0.06,-0.02 -0.13,0.13l1.43 5.14 3.33 0.01 2.36 -10.77c0.28,0.39 2.27,9.6 2.47,10.76l3.34 0.01 1.88 -6.8c0.23,0.35 1.83,6.09 1.94,6.8l3.35 0 2.41 -10.97 -3.19 0 -1.15 6.06 -1.73 -6.06 -3.15 0 -1.7 5.95c-0.47,-0.8 -1.05,-6.29 -1.3,-5.88l-0.68 -0.08c-0.27,0 -0.54,0 -0.82,0l-4.83 0.01 -1.13 6.05c-0.33,-0.97 -0.64,-2.08 -0.91,-3.05 -0.22,-0.76 -0.55,-2.48 -0.9,-2.99l-3.07 -0.01c-0.46,0.75 -1.19,4.97 -1.74,5.88 -0.01,-0.02 -0.03,-0.09 -0.04,-0.08l-0.58 -2.83c-0.19,-0.94 -0.34,-1.98 -0.56,-2.92 -0.74,-0.19 -5.13,-0.06 -6.41,-0.06l-1.14 6.09 -1.73 -6.07 -3.22 -0.01 -1.71 6.09 -1.15 -6.1 -3.19 0.01 2.43 10.97zm22.23 -24.72c2.41,0.14 10.92,-0.35 13.57,-0.59 0.02,-0.71 -1.74,-4.28 -2.16,-5.07 -2.17,-4 -5.47,-8.49 -10.02,-9.93 -0.45,-0.14 -1.01,-0.19 -1.37,-0.4l-0.02 15.99zm0 54.02c1.54,-0.01 3.89,-1.38 4.88,-2.14 2.73,-2.12 4.9,-4.89 6.5,-8.02 0.38,-0.75 2.19,-4.46 2.15,-5.11 -3.16,-0.19 -10.75,-0.86 -13.52,-0.62l-0.01 15.89zm-16.9 -15.32c0.04,0.74 1.73,4.2 2.2,5.07 1.52,2.87 3.82,6.23 6.45,8.07 1.27,0.88 3.32,2.11 4.94,2.18l0.01 -15.92c-2.33,0.03 -4.55,0.1 -6.85,0.2 -2.26,0.1 -4.55,0.33 -6.75,0.4zm0.66 -40.97c-0.17,0.3 -0.45,1.08 -0.58,1.49 0.02,0.02 0.05,0.05 0.06,0.07 0.01,0.01 0.05,0.05 0.06,0.06 0.01,0.01 0.09,0.09 0.11,0.11 0.73,-0.14 5.35,0.32 6.55,0.37 2.21,0.1 4.51,0.22 6.72,0.18l0.02 -15.92c-2.84,0.23 -5.78,2.68 -7.66,4.7 -0.18,0.2 -0.23,0.31 -0.41,0.52 -1.53,1.78 -4.27,6.11 -4.87,8.42zm-13.04 -0.35c0.63,0.51 8.55,1.63 9.04,1.66 1.14,-3.39 3.05,-7.65 5.2,-10.44 0.44,-0.56 0.7,-0.94 1.12,-1.44 0.39,-0.46 0.95,-0.97 1.24,-1.44 -1.21,0.24 -3.95,1.53 -5,2.08 -1.58,0.82 -3.11,1.75 -4.38,2.67 -1.47,1.07 -2.66,2.06 -3.85,3.21 -1.11,1.07 -2.38,2.36 -3.37,3.7zm7.58 41.95c-2.43,0.12 -5.21,0.87 -7.59,1.32 0.46,1.05 4.05,4.48 5.2,5.44 1.9,1.58 4.1,3.06 6.41,4.24 0.82,0.42 4.24,2.02 5.03,2.04 -0.39,-0.31 -0.72,-0.81 -1.12,-1.25 -0.37,-0.41 -0.71,-0.88 -1.08,-1.37 -0.75,-0.97 -1.34,-1.88 -1.96,-2.95 -0.65,-1.14 -3.05,-5.77 -3.09,-6.84 -0.22,-0.17 -0.07,0.01 -0.23,-0.37 -0.07,-0.16 -0.11,-0.31 -0.17,-0.47l-1.4 0.21zm38.42 -40.92l0.27 0.58 1.41 -0.19 4.08 -0.59 3.5 -0.73c-0.23,-0.63 -2.81,-3.28 -3.32,-3.76 -2.49,-2.35 -5.03,-4.24 -8.22,-5.89 -1.21,-0.62 -3.78,-1.86 -5.07,-2.1l2.28 2.75c1.82,2.48 3.24,5.16 4.39,8.08 0.22,0.56 0.61,1.22 0.68,1.85zm-7.36 53.99c1.45,-0.35 3.69,-1.38 5.01,-2.07 3.22,-1.7 3.79,-2.28 6.35,-4.19 0.71,-0.54 1.26,-1.12 1.9,-1.68 0.49,-0.42 3.15,-3.22 3.36,-3.81 -2.92,-0.53 -5.92,-1.32 -9,-1.52 -0.1,0.33 -0.19,0.56 -0.34,0.9 -0.16,0.35 -0.22,0.64 -0.35,0.97 -1.3,3.35 -3.36,7.28 -5.68,9.96l-1.25 1.44z"/>
   <g>
    <g>
     <path class="fil0" d="M31.29 33.78l3.91 3.66c0.67,-0.37 1.49,-0.61 2.25,-0.61 1.18,0 2.22,0.37 3.12,1.13 1.43,1.2 2.14,2.89 2.14,5.03l0 33.94 4.9 0 0 -33.94c0,-0.52 0.15,-1.33 0.44,-2.42 0.3,-1.1 0.95,-2 1.96,-2.69 1,-0.7 2.05,-1.05 3.12,-1.05 1.95,0 3.5,0.87 4.64,2.6 0.8,1.21 1.2,2.42 1.2,3.62l0 33.88 4.9 0 0 -33.89c0,-3.2 -0.96,-5.85 -2.89,-7.96 -1.93,-2.1 -4.35,-3.16 -7.27,-3.16 -3.2,0 -5.77,1.06 -7.72,3.16l-0.57 0.62c-2.33,-2.52 -5.09,-3.78 -8.29,-3.78 -2.06,0 -4.25,0.8 -5.84,1.86 -0.08,0.06 0.09,-0.06 0,0z"/>
     <path class="fil1" d="M10.83 77.02l0 -30.77c0,-4.48 1.25,-7.99 3.74,-10.54 2.39,-2.47 5.6,-3.7 9.63,-3.7 4.04,0 7.27,1.26 9.71,3.76 2.44,2.51 3.66,6 3.66,10.48l0 30.77 -5.11 0 0 -17.2 -16.46 0 0 17.2 -5.17 0zm5.17 -22.07l16.46 0 0 -8.63c0,-4.32 -1.49,-7.12 -4.46,-8.39 -1.43,-0.62 -2.81,-0.92 -4.13,-0.92 -2.38,0 -4.29,0.87 -5.72,2.62 -1.43,1.74 -2.15,3.97 -2.15,6.69l0 8.63z"/>
    </g>
   </g>
   <path class="fil0" d="M124.13 5.58c-3.46,0.19 -6.05,0.86 -8.79,2.21 -2.71,1.34 -4.65,2.94 -6.32,4.72 -0.51,0.54 -0.78,0.81 -1.28,1.46 -6.07,7.94 -6.22,18.7 -0.3,26.62 0.41,0.56 0.83,1.01 1.23,1.51l1.03 1.08c0.14,0.13 0.24,0.2 0.37,0.33 0.73,0.68 1.4,1.28 2.24,1.85 0.31,0.21 0.51,0.38 0.83,0.57 1.15,0.7 2.23,1.31 3.6,1.88 2.68,1.12 6.14,1.74 9.18,1.6 5.76,-0.25 11.52,-2.85 15.1,-6.89 0.12,-0.13 0.17,-0.17 0.32,-0.32l0.96 -1.14c0.37,-0.44 0.8,-1.07 1.15,-1.6 1.57,-2.41 2.57,-4.91 3.15,-7.82 0.13,-0.62 0.39,-2.42 0.37,-3.11 -0.01,-0.1 -0.02,-0.25 -0.02,-0.26 0.34,-3.39 -0.85,-7.66 -2.17,-10.42 -0.6,-1.27 -1.33,-2.42 -2.08,-3.41 -0.41,-0.56 -0.79,-1.03 -1.22,-1.53 -1.04,-1.22 -3.11,-2.98 -4.45,-3.83 -3.74,-2.4 -8.22,-3.77 -12.9,-3.5zm14.54 11.92c-0.31,0.06 -1.78,0.29 -1.97,0.27 -0.13,0.11 -0.21,0.09 -0.41,0.09l0.02 0.21 0.31 1.4c-0.55,0.03 -1.32,0.08 -1.88,0l-0.39 -1.39 -4.11 0.3c-1.4,0.08 -2.86,0.04 -4.24,0.13l-0.01 0.99 -1.88 0 -0.01 -0.99c-1.42,-0.05 -2.83,-0.06 -4.25,-0.13 -0.67,-0.03 -1.38,-0.07 -2.04,-0.13 -0.6,-0.05 -1.49,-0.18 -2.05,-0.16l-0.39 1.4 -1.91 0.01c0.07,-0.57 0.32,-1.13 0.4,-1.67 -1.47,-0.02 -4.44,-0.77 -5.79,-1.03 -0.81,1.3 -1.51,2.75 -2.07,4.37 -0.23,0.7 -1.26,4.79 -0.92,5.38 0.17,0.05 2.16,-0.01 2.64,-0.01l0.01 1.88 -2.71 0c0,0.15 0,0.67 0,0.7l0.31 2.08c0.53,2.88 1.39,4.53 2.74,6.96 1.33,-0.23 2.77,-0.68 4.21,-0.83 0.52,-0.06 1.02,-0.17 1.55,-0.22 -0.08,-0.57 -0.29,-1.08 -0.37,-1.64l1.89 0c0.12,0.23 0.27,1.14 0.41,1.41l4.09 -0.29c1.4,-0.07 2.83,-0.13 4.25,-0.12l0.01 -1 1.88 0 0 0.99c2.08,0.13 4.09,0.07 6.35,0.26 0.5,0.04 1.58,0.19 2.03,0.15l0.35 -1.4 1.92 0 -0.37 1.59c0.09,0.05 -0.03,0.01 0.16,0.06l2.78 0.43c0.94,0.18 1.95,0.47 2.82,0.61 0.36,-0.67 0.77,-1.27 1.12,-2.03 1.05,-2.27 1.91,-5.13 1.92,-7.71l-2.69 0 0 -1.87 2.05 -0.01c0.79,0.01 0.9,0.37 0.33,-2.82 -0.31,-1.71 -0.89,-3.29 -1.59,-4.84 -0.22,-0.48 -0.89,-1.82 -1.19,-2.07 -1.09,0.24 -2.15,0.51 -3.31,0.69zm-26.37 3.59c-1.51,0.32 -2.52,1.26 -2.92,2.64 -0.27,0.93 -0.13,4.23 -0.13,5.45 0,1 -0.06,1.6 0.29,2.49 1.05,2.7 4.01,2.26 6.16,2.26 6.39,0 12.92,0 19.33,0 0.75,0 2.09,0.08 2.78,-0.05 1.45,-0.27 2.53,-1.31 2.91,-2.64 0.27,-0.98 0.13,-4.17 0.13,-5.39 0,-0.94 0.07,-1.62 -0.26,-2.47 -0.22,-0.59 -0.71,-1.25 -1.2,-1.6 -1.39,-1.01 -2.93,-0.75 -4.88,-0.75l-16.65 0c-0.91,0 -4.99,-0.06 -5.56,0.06zm18.35 10.96l6.25 0c2.58,0 2.06,-2.36 2.06,-4.57 0,-2.18 0.52,-4.56 -2.06,-4.56l-23.12 0c-0.85,0 -1.42,-0.07 -1.99,0.42 -0.51,0.44 -0.64,0.85 -0.65,1.75l0 4.79c0,0.88 0.18,1.36 0.68,1.78 0.51,0.43 1.2,0.39 2.02,0.39l7.18 0c3.21,-0.01 6.43,0 9.63,0zm-17.35 -1.34l1.9 0c0.14,-0.61 0.9,-3.52 1.11,-3.9l1.08 3.9 1.88 0 1.38 -6.14 1.41 6.14 1.82 0c0.2,-0.15 0.53,-1.63 0.62,-1.96 0.13,-0.47 0.39,-1.63 0.57,-1.95 0.12,0.41 0.15,0.79 0.34,0.9 0.01,0.07 0.04,-0.01 -0.07,0.08l0.82 2.93 1.9 0 1.35 -6.14c0.15,0.22 1.29,5.47 1.41,6.14l1.9 0 1.08 -3.88c0.13,0.2 1.04,3.48 1.11,3.89l1.91 -0.01 1.37 -6.26 -1.82 0 -0.66 3.46 -0.98 -3.46 -1.8 0 -0.97 3.4c-0.27,-0.46 -0.6,-3.59 -0.75,-3.36l-0.38 -0.05c-0.16,0 -0.31,0.01 -0.47,0.01l-2.76 0 -0.65 3.45c-0.18,-0.55 -0.36,-1.19 -0.51,-1.74 -0.13,-0.43 -0.32,-1.41 -0.52,-1.71l-1.75 0c-0.26,0.43 -0.68,2.83 -0.99,3.36 -0.01,-0.02 -0.02,-0.06 -0.02,-0.05l-0.34 -1.61c-0.11,-0.54 -0.19,-1.13 -0.32,-1.67 -0.42,-0.11 -2.92,-0.03 -3.65,-0.03l-0.66 3.47 -0.98 -3.46 -1.84 -0.01 -0.98 3.48 -0.65 -3.48 -1.82 0 1.38 6.26zm12.69 -14.11c1.38,0.08 6.23,-0.2 7.75,-0.33 0.01,-0.41 -0.99,-2.45 -1.24,-2.9 -1.23,-2.28 -3.12,-4.85 -5.72,-5.67 -0.25,-0.08 -0.57,-0.11 -0.78,-0.23l-0.01 9.13zm0 30.84c0.88,-0.01 2.22,-0.78 2.78,-1.22 1.56,-1.21 2.8,-2.79 3.72,-4.58 0.21,-0.43 1.25,-2.55 1.23,-2.92 -1.81,-0.1 -6.14,-0.49 -7.72,-0.35l-0.01 9.07zm-9.65 -8.75c0.03,0.43 0.99,2.4 1.26,2.9 0.87,1.64 2.18,3.56 3.68,4.61 0.72,0.5 1.9,1.2 2.82,1.24l0.01 -9.09c-1.33,0.02 -2.6,0.06 -3.91,0.12 -1.3,0.05 -2.6,0.18 -3.86,0.22zm0.38 -23.39c-0.1,0.17 -0.26,0.62 -0.33,0.86 0.01,0.01 0.03,0.03 0.03,0.03 0.01,0.01 0.03,0.03 0.04,0.04 0,0.01 0.05,0.05 0.06,0.06 0.42,-0.08 3.06,0.18 3.74,0.21 1.26,0.06 2.57,0.13 3.84,0.11l0.01 -9.09c-1.62,0.13 -3.3,1.53 -4.37,2.68 -0.11,0.11 -0.14,0.18 -0.24,0.3 -0.87,1.01 -2.44,3.49 -2.78,4.8zm-7.44 -0.2c0.36,0.3 4.88,0.93 5.15,0.95 0.66,-1.93 1.75,-4.37 2.98,-5.96 0.24,-0.31 0.4,-0.54 0.64,-0.82 0.22,-0.26 0.54,-0.55 0.7,-0.82 -0.69,0.13 -2.25,0.87 -2.85,1.18 -0.9,0.47 -1.78,1 -2.51,1.53 -0.83,0.61 -1.51,1.18 -2.19,1.83 -0.63,0.61 -1.36,1.35 -1.92,2.11zm4.32 23.95c-1.38,0.07 -2.97,0.5 -4.33,0.76 0.26,0.59 2.31,2.56 2.97,3.11 1.09,0.9 2.34,1.74 3.66,2.41 0.47,0.24 2.42,1.16 2.87,1.17 -0.22,-0.18 -0.41,-0.46 -0.64,-0.71 -0.21,-0.24 -0.41,-0.51 -0.62,-0.79 -0.42,-0.55 -0.76,-1.07 -1.12,-1.68 -0.37,-0.65 -1.74,-3.29 -1.76,-3.9 -0.13,-0.11 -0.04,0 -0.13,-0.22 -0.04,-0.09 -0.07,-0.17 -0.1,-0.27l-0.8 0.12zm21.94 -23.36l0.15 0.33 0.81 -0.11 2.33 -0.33 1.99 -0.42c-0.13,-0.36 -1.6,-1.87 -1.89,-2.15 -1.42,-1.34 -2.87,-2.42 -4.7,-3.36 -0.68,-0.35 -2.15,-1.06 -2.89,-1.2l1.3 1.57c1.04,1.42 1.85,2.95 2.51,4.61 0.12,0.32 0.35,0.7 0.39,1.06zm-4.2 30.83c0.82,-0.2 2.1,-0.79 2.86,-1.19 1.83,-0.97 2.16,-1.3 3.62,-2.39 0.4,-0.3 0.72,-0.64 1.09,-0.96 0.27,-0.24 1.79,-1.83 1.91,-2.17 -1.67,-0.31 -3.38,-0.76 -5.14,-0.87 -0.05,0.19 -0.1,0.32 -0.19,0.51 -0.09,0.2 -0.12,0.37 -0.2,0.56 -0.74,1.91 -1.92,4.15 -3.24,5.69l-0.71 0.82z"/>
  </g>
 </g>
</svg>
