<?xml version="1.0" encoding="UTF-8"?>
<!DOCTYPE svg PUBLIC "-//W3C//DTD SVG 1.1//EN" "http://www.w3.org/Graphics/SVG/1.1/DTD/svg11.dtd">
<!-- Creator: CorelDRAW 2020 (64-Bit) -->
<svg xmlns="http://www.w3.org/2000/svg" xml:space="preserve" width="700px" height="138px" version="1.1" style="shape-rendering:geometricPrecision; text-rendering:geometricPrecision; image-rendering:optimizeQuality; fill-rule:evenodd; clip-rule:evenodd"
viewBox="0 0 762.33 150.6"
 xmlns:xlink="http://www.w3.org/1999/xlink"
 xmlns:xodm="http://www.corel.com/coreldraw/odm/2003">
 <defs>
  <style type="text/css">
   <![CDATA[
    .fil3 {fill:#FF8000}
    .fil2 {fill:white}
    .fil0 {fill:#FF8000;fill-rule:nonzero}
    .fil1 {fill:white;fill-rule:nonzero}
   ]]>
  </style>
 </defs>
 <g id="Livello_x0020_1">
  <metadata id="CorelCorpID_0Corel-Layer"/>
  <g id="_2075693657456">
   <g>
    <path class="fil0" d="M0.14 56.5l0 -38.62c0,-5.62 1.76,-10.04 5.27,-13.24 3.35,-3.09 7.87,-4.64 13.54,-4.64 5.68,0 10.23,1.57 13.66,4.72 3.44,3.15 5.15,7.54 5.15,13.16l0 38.62 -7.2 0 0 -21.59 -23.14 0 0 21.59 -7.28 0zm7.28 -27.71l23.14 0 0 -10.83c0,-5.42 -2.09,-8.93 -6.27,-10.53 -2.01,-0.77 -3.94,-1.16 -5.8,-1.16 -3.36,0 -6.04,1.1 -8.05,3.29 -2.01,2.19 -3.02,4.99 -3.02,8.4l0 10.83zm138.39 27.71l0 -20.93c0,-5.28 1.59,-9.45 4.76,-12.49 3.18,-3.06 7.42,-4.58 12.73,-4.58 5.32,0 9.58,1.51 12.78,4.54 3.2,3.02 4.79,7.2 4.79,12.53l0 20.93 -6.73 0 0 -21.02c0,-3.22 -0.98,-5.82 -2.94,-7.83 -1.96,-2.03 -4.54,-3.04 -7.74,-3.04 -3.25,0 -5.9,1 -7.93,3 -2.04,1.98 -3.06,4.6 -3.06,7.87l0 21.02 -6.66 0z"/>
    <path class="fil1" d="M44.42 56.5l0 -20.93c0,-5.28 1.58,-9.45 4.76,-12.49 3.17,-3.06 7.42,-4.58 12.73,-4.58 5.31,0 9.57,1.51 12.77,4.54 3.2,3.02 4.8,7.2 4.8,12.53l0 20.93 -6.73 0 0 -21.02c0,-3.22 -0.98,-5.82 -2.95,-7.83 -1.96,-2.03 -4.54,-3.04 -7.74,-3.04 -3.25,0 -5.89,1 -7.93,3 -2.04,1.98 -3.06,4.6 -3.06,7.87l0 21.02 -6.65 0zm41.72 -12.69l0 -36.07 6.65 0 0 11.3 7.82 0 0 6.12 -7.82 0 0 18.65c0,4.13 2.02,6.42 6.04,6.89l1.78 0 0 5.96c-0.77,0.15 -1.52,0.23 -2.24,0.23 -2.48,0 -4.88,-0.85 -7.2,-2.55 -2.32,-1.71 -3.77,-3.75 -4.34,-6.12 -0.46,-1.96 -0.69,-3.43 -0.69,-4.41zm22.83 -6.39c0,3.58 1.19,6.7 3.56,9.36 2.37,2.67 5.34,3.99 8.9,3.99 3.51,0 6.45,-1.3 8.82,-3.92 2.38,-2.6 3.57,-5.7 3.57,-9.27 0,-6 -2.66,-10.09 -7.98,-12.27 -1.55,-0.62 -3.04,-0.93 -4.49,-0.93 -2.32,0 -4.5,0.66 -6.54,1.97 -2.03,1.33 -3.52,3.04 -4.45,5.14 -0.93,2.09 -1.39,4.08 -1.39,5.93zm-6.97 -0.15c0,-5.54 1.82,-10.13 5.46,-13.77 3.64,-3.65 8.22,-5.47 13.74,-5.47 7.22,0 12.72,2.92 16.49,8.76 2.06,3.22 3.09,6.78 3.09,10.71 0,5.23 -2.32,10.27 -6.96,15.12 -2.84,3.01 -7.05,4.5 -12.62,4.5 -5.47,0 -10.04,-1.92 -13.7,-5.78 -3.66,-3.84 -5.5,-8.54 -5.5,-14.07zm85.61 19.23l0 -37.3 6.65 0 0 37.3 -6.65 0zm-1.63 -51.39c0,-1.39 0.49,-2.58 1.47,-3.56 0.98,-0.98 2.17,-1.47 3.56,-1.47 1.4,0 2.58,0.49 3.56,1.47 0.98,0.98 1.48,2.17 1.48,3.56 0,1.39 -0.5,2.57 -1.48,3.52 -0.98,0.95 -2.16,1.43 -3.56,1.43 -1.39,0 -2.58,-0.48 -3.56,-1.43 -0.98,-0.95 -1.47,-2.13 -1.47,-3.52zm15.17 51.39l0 -20.93c0,-5.28 1.59,-9.45 4.76,-12.49 3.18,-3.06 7.42,-4.58 12.74,-4.58 5.31,0 9.57,1.51 12.77,4.54 3.2,3.02 4.8,7.2 4.8,12.53l0 20.93 -6.74 0 0 -21.02c0,-3.22 -0.98,-5.82 -2.94,-7.83 -1.96,-2.03 -4.54,-3.04 -7.74,-3.04 -3.25,0 -5.89,1 -7.93,3 -2.04,1.98 -3.06,4.6 -3.06,7.87l0 21.02 -6.66 0zm47.06 -19.08c0,3.58 1.19,6.7 3.56,9.36 2.38,2.67 5.34,3.99 8.9,3.99 3.51,0 6.45,-1.3 8.83,-3.92 2.37,-2.6 3.56,-5.7 3.56,-9.27 0,-6 -2.66,-10.09 -7.97,-12.27 -1.55,-0.62 -3.05,-0.93 -4.49,-0.93 -2.33,0 -4.51,0.66 -6.54,1.97 -2.04,1.33 -3.52,3.04 -4.45,5.14 -0.93,2.09 -1.4,4.08 -1.4,5.93zm-6.96 -0.15c0,-5.54 1.82,-10.13 5.45,-13.77 3.64,-3.65 8.22,-5.47 13.74,-5.47 7.23,0 12.72,2.92 16.49,8.76 2.06,3.22 3.09,6.78 3.09,10.71 0,5.23 -2.32,10.27 -6.96,15.12 -2.84,3.01 -7.04,4.5 -12.62,4.5 -5.47,0 -10.03,-1.92 -13.7,-5.78 -3.66,-3.84 -5.49,-8.54 -5.49,-14.07z"/>
   </g>
   <g>
    <path class="fil2" d="M61.68 136.31l5.72 0 0 9.06 -5.72 0 0 -9.06zm173.88 -41.69l8.58 0 0 9.05 -8.58 0 0 -9.05zm-11.44 43.14l6.44 0 0 4.79 -6.44 0 0 -4.79zm-45.54 -55.4c29.87,-4.16 118.23,4.36 118.31,9.05 -11.86,0.02 -31.56,-0.12 -39.93,-0.45 -5.85,-0.22 0.2,0.55 -1.04,-0.09 -3.29,-1.69 -8.24,-0.8 -9.64,-0.25 -2.41,0.96 -13.29,-1.64 -13.39,-0.33 -0.01,0.09 -0.85,0.37 -1.61,0.01 -2.16,-1.01 -6.09,-2.07 -9.91,0.28 -2.16,1.31 -4.94,0.39 -4.84,0.76 0.27,1.02 -2.32,-0.16 -2.42,-0.45 -1.07,-3.19 -5.71,-1.06 -11.22,-6.73 -2.96,-3.04 -20.75,-2.08 -24.31,-1.8zm-116.18 0l3.57 0 0 49.69 -3.57 0 0 -49.69zm163.15 33.16l3.99 0 0 13.58 -3.99 0 0 -13.58zm88.64 -89.6l2.5 0 0 83.61 -2.5 0 0 -83.61zm-80.28 117.65l0.31 -6.54 10.1 -0.52 -0.11 6.93 -10.3 0.13zm-162.59 -7.03l4.16 -0.35 140.59 0.44 4.25 0.17 -0.01 6.4 -4.24 0.28 -137.08 -0.43 -7.69 -0.15 0.02 -6.36zm176.63 -2.85c0.34,0.1 0.84,-0.04 1.04,0.27l5.8 0.72 0.39 10.89 -7.9 0.08c-0.15,-1.83 -0.1,-3.09 -0.11,-4.7l-1.14 -5.86c0.75,-0.15 1.62,-0.55 1.92,-1.4zm-13.26 -3.38c-0.98,-4.77 -0.57,-10.61 -0.55,-15.53 0.03,-7.91 6.73,-9.64 9.5,-4.9 1.04,1.79 0.6,12.74 0.56,15.46 -0.1,7.65 -3.43,7.27 -9.51,4.97zm-47.81 -21.55l0.14 -22.05 10.29 -0.59 0.31 14.82 -0.85 10.3 -9.89 0.45 0 -2.93zm-129.04 -26.75l-1.63 49.35c-0.1,2.87 -44.62,-10.7 -29.51,-35.88 2.46,-4.11 6.72,-7.88 10.98,-10.04 8.35,-4.25 8.29,-4.6 20.16,-3.43zm189.38 12.12l7.86 -0.18 0.05 10.88 -7.98 0.15 0.07 -10.85zm-30.67 8.55l0.34 -6.43 0.44 -2.17c0.29,0.14 4.47,0.46 4.96,-0.11 0.58,-0.68 2.44,-0.21 9,-0.2l0.48 10.65c-1.99,0.61 -6.71,1.91 -8.69,1.75 -3.7,-0.29 -1.07,-1.8 -6.53,-3.49zm41.27 -6.68l43.38 -0.14c1.94,1.95 3.85,4.05 5.05,7.14l-48.17 0 -0.26 -7zm-58.39 11.3l0.06 -16.78c6.67,1.49 13.8,1.27 14.49,7.85 0.72,6.79 -6.4,8.71 -14.55,8.93zm17.81 0.63c4.34,4.12 3.01,3.39 2.96,10.38 -0.14,16.11 4.68,13.57 -30.95,13.57l-117.52 0.33 1.16 -49.47 109.09 -0.02c-2.08,3.51 -3.12,30.38 0.66,32.68 3.36,2.05 16.43,1.58 19.31,-0.62 4.9,-3.75 -1.55,-1.39 6.61,-3.67 4.21,-1.18 5.22,-2.27 8.68,-3.18zm-163.6 -31.54c-5.27,1.24 -31.28,2.19 -35.18,23.43 -1.78,9.74 2.83,19.95 9.14,25.97 8.53,8.16 12.58,8.41 29.81,10.82l-0.02 6.08c-34.62,4.65 -73.48,-36.19 -35.89,-63.71 10.2,-7.46 17.81,-9.57 36.47,-9.83 66.34,-0.95 152.87,4.8 222.48,-12.9 19.87,-5.05 24.59,-12.74 30.2,-18.53l0.29 58.26c-4.32,-1.72 -3.22,-2.22 -6.85,-4.17 -13.87,-7.43 -44.42,-11.43 -61.34,-12.24l-65.17 -1.77 -123.94 -1.41zm195.71 31.54l3.98 0 0 21.04 -3.98 0 0 -21.04zm480.81 22.94c-1.62,2.1 -4.44,3.97 -6.36,5.39 -12.86,9.46 -35.04,6.73 -56.16,6.73l-409.6 0.44 0.03 -6.8 441.07 -0.45c7.94,0 14.55,-1.74 18.8,-4.64l12.22 -0.67zm-189.1 -36.19l0 35.64 -14.39 0 0 -35.16c0,-8.64 -3.08,-16.73 -9.26,-24.3 -3.75,-4.58 -9.75,-6.87 -18.02,-6.87 -12.35,0 -20.84,5.83 -25.47,17.53 -1.32,3.33 -1.99,6.58 -1.99,9.8 0,5.14 1.49,10.12 4.47,14.95 2.98,4.82 6.83,8.07 11.58,9.72 4.74,1.68 8.49,2.66 11.24,2.98 7.39,0 13.73,-1.75 19.02,-5.27l0 13.18c-5.73,2.48 -12.07,3.7 -19.02,3.7 -11.91,0 -21.91,-2.71 -30.01,-10.19 -8.11,-7.46 -12.16,-16.92 -12.16,-28.35 0,-14.52 6.17,-26 18.52,-34.42 6.95,-4.72 14.78,-7.06 23.49,-7.06 13.34,0 23.75,4.21 31.25,12.63 7.17,7.88 10.75,18.38 10.75,31.49zm14.06 1.84l0 -43.24 14.22 0 0 43.16c0,6.71 2.07,12.14 6.2,16.3 4.14,4.16 9.68,6.23 16.62,6.23 7.17,0 12.87,-2.02 17.12,-6.07 4.24,-4.05 6.37,-9.54 6.37,-16.46l0 -43.16 14.38 0 0 43.24c0,10.89 -3.42,19.47 -10.25,25.7 -6.84,6.26 -15.93,8.36 -27.29,8.36 -11.35,0 -20.42,-2.1 -27.2,-8.36 -6.78,-6.23 -10.17,-14.81 -10.17,-25.7zm89.13 33.8l0 -49.76c0,-12.34 5.85,-21.08 17.53,-26.16 3.86,-1.71 7.89,-2.56 12.08,-2.56l1.82 0c0.88,0.21 1.54,0.32 1.98,0.32l0 12.79 -3.64 0c-9.15,0 -14.22,4.52 -15.21,13.56l-0.33 3.01 0 48.8 -14.23 0zm85.91 0.55c-2.95,0.51 -6.15,0.75 -9.67,0.73 -0.81,0 -1.76,-0.02 -2.55,-0.06l12.22 -0.67zm-21.03 -0.67c-6.64,2.05 -16.15,1.24 -23.99,1.24l-397.92 0.44c-6.59,0 -24.79,1.85 -27.98,-1.37 -2.52,-2.56 -1.42,-19.6 -0.03,-21.58 6.32,-2.83 36.34,-1.31 46.67,-1.3 2.57,2.39 1.95,6.44 8.42,7.06 6.83,0.67 8.24,-2.68 8.54,-7.05l386.29 22.56zm-386.29 -22.56l6.37 0 0 -4.14 -6.33 0 0.06 -7.43 6.35 -0.03 -0.01 -4.29 -6.35 0 -0.09 -63.8c0,-10.07 -11.25,-10.32 -14.53,-5.12 -5.73,23.1 -5.41,24.77 -29.1,31.25 -70.56,19.29 -186.77,9.62 -221.03,11.53 -22.75,0.54 -27.62,0.24 -40.53,9.63 -10.09,7.33 -18.22,15.33 -17.62,30.5 0.57,14.32 7.61,22.12 18.88,30.89 9.06,7.05 18.7,9.17 31,10.84 7.88,1.07 3.09,2.66 11.58,2.66 16.36,0 8.79,-0.96 14.45,-2.14l134.39 0.07c12.64,0.02 3.22,2.97 19.81,2.47 6.42,-0.2 5.2,-1.26 9.26,-2.42 6.32,1.94 1.34,2.52 11.66,2.49 10.61,-0.02 7.83,-2.49 12.83,-2.49l436.41 -0.44c20.29,0.01 33.58,-8.71 38.15,-19.27 3.38,-1.51 6.54,-3.61 9,-6.1 9.91,-10.03 14.88,-20.43 14.88,-31.22 0,-8.12 -2.2,-15.48 -6.61,-22.11 -8.05,-12.07 -19.79,-18.09 -35.23,-18.09 -11.79,0 -21.58,3.76 -29.35,11.3 -7.77,7.51 -11.66,16.99 -11.66,28.42 0,11.43 3.92,21.12 11.74,29.07 5.17,5.25 11.1,8.75 17.91,10.53l-386.29 -22.56zm407.67 13.28c1.3,-0.31 3.31,-1.23 4.49,-1.85 2.88,-1.52 3.39,-2.04 5.68,-3.76 0.63,-0.47 1.13,-1 1.7,-1.49 0.44,-0.38 2.82,-2.89 3.01,-3.42 -2.62,-0.47 -5.3,-1.18 -8.06,-1.35 -0.08,0.29 -0.17,0.5 -0.3,0.8 -0.14,0.31 -0.2,0.57 -0.31,0.87 -1.17,2.99 -3.02,6.52 -5.09,8.92l-1.12 1.28zm6.59 -48.33l0.24 0.51 1.26 -0.17 3.66 -0.53 3.13 -0.65c-0.21,-0.57 -2.51,-2.94 -2.97,-3.36 -2.23,-2.11 -4.5,-3.8 -7.36,-5.27 -1.08,-0.56 -3.39,-1.67 -4.54,-1.89l2.04 2.46c1.63,2.23 2.9,4.63 3.93,7.24 0.19,0.5 0.54,1.09 0.61,1.66zm-34.39 36.63c-2.18,0.11 -4.67,0.78 -6.8,1.18 0.41,0.94 3.62,4.02 4.66,4.88 1.7,1.41 3.67,2.73 5.73,3.79 0.73,0.37 3.8,1.81 4.51,1.82 -0.35,-0.27 -0.65,-0.72 -1.01,-1.11 -0.33,-0.37 -0.63,-0.79 -0.97,-1.23 -0.66,-0.87 -1.2,-1.68 -1.75,-2.64 -0.58,-1.02 -2.73,-5.17 -2.77,-6.12 -0.19,-0.16 -0.06,0 -0.2,-0.34 -0.07,-0.14 -0.1,-0.27 -0.15,-0.42l-1.25 0.19zm-6.79 -37.56c0.56,0.46 7.65,1.46 8.09,1.49 1.02,-3.03 2.73,-6.85 4.66,-9.34 0.39,-0.5 0.63,-0.85 1,-1.29 0.35,-0.42 0.85,-0.87 1.11,-1.29 -1.08,0.21 -3.53,1.36 -4.48,1.85 -1.41,0.74 -2.79,1.57 -3.92,2.4 -1.31,0.95 -2.38,1.85 -3.44,2.87 -1,0.96 -2.14,2.12 -3.02,3.31zm11.67 0.31c-0.15,0.27 -0.4,0.97 -0.52,1.34 0.02,0.02 0.05,0.05 0.06,0.06 0.01,0.01 0.04,0.04 0.05,0.05 0.01,0.02 0.08,0.09 0.1,0.11 0.65,-0.13 4.79,0.28 5.86,0.33 1.98,0.09 4.04,0.2 6.02,0.16l0.02 -14.26c-2.54,0.21 -5.17,2.41 -6.86,4.21 -0.16,0.18 -0.21,0.28 -0.37,0.46 -1.36,1.6 -3.82,5.48 -4.36,7.54zm-0.59 36.68c0.04,0.67 1.55,3.77 1.97,4.55 1.36,2.56 3.42,5.57 5.77,7.22 1.14,0.79 2.98,1.89 4.43,1.96l0 -14.26c-2.08,0.02 -4.07,0.09 -6.12,0.18 -2.03,0.08 -4.08,0.29 -6.05,0.35zm15.13 13.72c1.38,-0.01 3.48,-1.23 4.37,-1.91 2.44,-1.9 4.38,-4.38 5.82,-7.19 0.34,-0.66 1.96,-3.99 1.92,-4.57 -2.82,-0.17 -9.62,-0.77 -12.1,-0.56l-0.01 14.23zm0 -48.36c2.16,0.13 9.77,-0.31 12.15,-0.53 0.02,-0.63 -1.56,-3.83 -1.94,-4.54 -1.94,-3.58 -4.9,-7.6 -8.96,-8.89 -0.41,-0.12 -0.91,-0.17 -1.23,-0.35l-0.02 14.31zm7.31 24.22l9.8 0c4.04,0 3.23,-3.69 3.23,-7.15 0,-3.42 0.81,-7.16 -3.23,-7.16l-36.26 0c-1.33,0 -2.22,-0.12 -3.12,0.65 -0.8,0.69 -1.01,1.33 -1.01,2.75l-0.01 7.51c0,1.39 0.28,2.14 1.07,2.8 0.8,0.68 1.88,0.6 3.16,0.6l11.26 0c5.04,-0.01 10.08,0 15.11,0zm-28.78 -17.18c-2.37,0.49 -3.95,1.98 -4.58,4.14 -0.42,1.47 -0.2,6.64 -0.2,8.54 0,1.58 -0.1,2.51 0.44,3.91 1.66,4.24 6.3,3.55 9.68,3.55 10.01,0 20.25,0 30.31,0 1.18,0 3.28,0.12 4.35,-0.08 2.28,-0.43 3.98,-2.05 4.56,-4.14 0.43,-1.53 0.21,-6.54 0.21,-8.46 0,-1.48 0.11,-2.54 -0.4,-3.87 -0.35,-0.92 -1.11,-1.95 -1.88,-2.51 -2.18,-1.58 -4.6,-1.17 -7.67,-1.17l-26.09 0c-1.44,0 -7.84,-0.1 -8.73,0.09zm41.35 -5.62c-0.49,0.09 -2.79,0.44 -3.09,0.41 -0.2,0.17 -0.33,0.14 -0.63,0.15l0.02 0.32 0.5 2.2c-0.87,0.04 -2.08,0.12 -2.96,0l-0.61 -2.17 -6.44 0.46c-2.2,0.12 -4.49,0.06 -6.65,0.21l-0.02 1.54 -2.96 0.01 0 -1.56c-2.24,-0.08 -4.45,-0.09 -6.67,-0.2 -1.05,-0.05 -2.16,-0.12 -3.21,-0.2 -0.92,-0.08 -2.33,-0.28 -3.2,-0.25l-0.61 2.2 -3 0.01c0.1,-0.9 0.5,-1.77 0.62,-2.62 -2.3,-0.03 -6.96,-1.22 -9.07,-1.61 -1.28,2.04 -2.37,4.3 -3.24,6.85 -0.37,1.09 -1.98,7.5 -1.46,8.42 0.28,0.1 3.4,-0.01 4.15,0l0.01 2.95 -4.24 0c0,0.23 0,1.04 0,1.1l0.49 3.25c0.82,4.52 2.16,7.12 4.28,10.92 2.09,-0.37 4.35,-1.07 6.6,-1.3 0.82,-0.09 1.6,-0.27 2.45,-0.35 -0.14,-0.89 -0.47,-1.69 -0.59,-2.58l2.97 0.01c0.18,0.36 0.42,1.79 0.64,2.2l6.4 -0.45c2.21,-0.1 4.45,-0.19 6.67,-0.19l0.02 -1.57 2.95 0 0.01 1.56c3.25,0.21 6.4,0.11 9.94,0.41 0.79,0.06 2.48,0.3 3.19,0.23l0.55 -2.19 3 -0.01 -0.56 2.5c0.13,0.08 -0.06,0.01 0.24,0.1l4.36 0.68c1.47,0.27 3.06,0.72 4.43,0.95 0.56,-1.05 1.19,-2 1.75,-3.19 1.65,-3.55 3,-8.03 3.02,-12.08l-4.23 0 0 -2.94 3.22 -0.01c1.24,0.01 1.41,0.58 0.51,-4.43 -0.49,-2.68 -1.38,-5.16 -2.5,-7.59 -0.34,-0.74 -1.38,-2.85 -1.86,-3.24 -1.71,0.37 -3.37,0.8 -5.19,1.09zm-22.8 -18.71c-5.43,0.31 -9.49,1.35 -13.78,3.47 -4.25,2.1 -7.29,4.62 -9.91,7.4 -0.81,0.86 -1.22,1.27 -2.01,2.3 -9.52,12.44 -9.76,29.32 -0.47,41.75 0.65,0.86 1.3,1.57 1.93,2.36l1.62 1.69c0.21,0.2 0.37,0.31 0.58,0.51 1.13,1.08 2.19,2.01 3.51,2.91 0.48,0.32 0.79,0.59 1.29,0.9 1.82,1.1 3.5,2.04 5.66,2.95 4.19,1.75 9.62,2.72 14.4,2.51 9.03,-0.4 18.06,-4.47 23.67,-10.81 0.19,-0.21 0.27,-0.27 0.5,-0.5l1.51 -1.79c0.58,-0.7 1.25,-1.68 1.8,-2.51 2.45,-3.78 4.04,-7.7 4.94,-12.26 0.2,-0.98 0.61,-3.8 0.57,-4.89 0,-0.15 -0.02,-0.38 -0.02,-0.4 0.54,-5.32 -1.33,-12.02 -3.4,-16.34 -0.95,-1.99 -2.1,-3.79 -3.26,-5.35 -0.66,-0.87 -1.25,-1.61 -1.92,-2.39 -1.63,-1.92 -4.88,-4.67 -6.98,-6.02 -5.87,-3.75 -12.89,-5.91 -20.23,-5.49zm-15.61 39.29l2.73 0c0.2,-0.88 1.28,-5.05 1.59,-5.6l1.56 5.59 2.68 0 2.03 -5.64 1.98 5.64 2.61 0.01c0.28,-0.21 0.76,-2.35 0.89,-2.82 0.19,-0.67 0.56,-2.33 0.81,-2.79 0.18,0.59 0.22,1.13 0.5,1.29 0.01,0.1 0.05,-0.02 -0.11,0.11l1.17 4.2 2.73 0.01 2.25 -7.35c0.22,0.32 1.54,6.39 1.71,7.34l2.73 0.01 1.54 -5.56c0.19,0.28 1.49,4.98 1.59,5.56l2.74 0 1.97 -8.98 -2.61 -0.01 -0.94 4.97 -1.42 -4.96 -2.57 -0.01 -1.4 4.88c-0.39,-0.66 -0.86,-5.15 -1.07,-4.82l-0.55 -0.06c-0.22,0 -0.44,0 -0.67,0l-1.28 -0.06 -2.67 0.06 -0.93 4.96c-0.27,-0.8 -0.52,-1.71 -0.75,-2.5 -0.17,-0.62 -0.45,-2.03 -0.73,-2.45l-2.52 -0.01c-0.37,0.62 -0.97,4.07 -1.42,4.82 -0.01,-0.02 -0.03,-0.08 -0.03,-0.06l-0.48 -2.32c-0.15,-0.77 -0.27,-1.62 -0.46,-2.39 -0.6,-0.16 -4.19,-0.05 -5.24,-0.05l-0.94 4.99 -1.41 -4.97 -2.64 -0.02 -1.4 4.99 -0.94 -4.99 -2.61 0 1.98 8.99z"/>
   </g>
   <path class="fil3" d="M329.21 102.69l0.01 27.63 15.54 0 0 -95.94c0,-3.2 1.05,-6.24 3.14,-9.14 4.08,-5.65 8.93,-8.47 14.56,-8.47 3.74,0 7.06,1.05 9.92,3.2 4.53,3.39 6.78,8.18 6.78,14.25l0 96.1 15.54 0 0 -96.1c0,-1.49 0.48,-3.78 1.41,-6.87 0.94,-3.12 3.01,-5.65 6.2,-7.62 3.2,-1.97 6.51,-2.96 9.92,-2.96 6.18,0 11.09,2.45 14.72,7.35 2.54,3.43 3.81,6.85 3.81,10.26l0 95.94 15.54 0 0 -95.97c0,-9.05 -3.06,-16.57 -9.18,-22.54 -6.12,-5.96 -13.81,-8.95 -23.07,-8.95 -10.14,0 -18.3,2.99 -24.47,8.95l-1.82 1.76c-7.39,-7.14 -16.15,-10.71 -26.3,-10.71 -9.26,0 -16.95,2.99 -23.07,8.95 -6.11,5.97 -9.17,13.48 -9.17,22.54l0.07 61.69 -0.08 6.65z"/>
  </g>
 </g>
</svg>
